<svg xmlns="http://www.w3.org/2000/svg" width="204" height="58"><path fill="#ffcd1c" d="M108.69 3.47l-5.8 12.427L97.08 3.47zM167.467 28.056c0-1.995-1.629-3.606-3.628-3.606-2 0-3.629 1.619-3.629 3.606 0 1.995 1.63 3.605 3.629 3.605s3.628-1.61 3.628-3.605zM10.511 21.246a4.092 4.092 0 00-2.27-.711c-.593-.017-3.226-.025-3.226-.025l-.025 5.396s2.806.025 3.217.008a4.79 4.79 0 001.58-.302c2.032-.769 2.477-3.18.724-4.366z"/><path fill="#fff" d="M157.022 5.862L153.903 0h-2.073v8.568h1.506V2.085l3.456 6.483h1.736V0h-1.506zM165.26 2.79c.544.613.824 1.456.824 2.502 0 1.047-.272 1.889-.823 2.502-.552.621-1.309.94-2.23.94-.93 0-1.687-.319-2.238-.94-.543-.613-.823-1.455-.823-2.502 0-1.038.28-1.88.823-2.502.551-.621 1.308-.94 2.238-.94.93 0 1.678.319 2.23.94zm-1.135.908c-.263-.327-.617-.483-1.094-.483-.477 0-.84.156-1.103.483-.271.335-.411.866-.411 1.594 0 .703.14 1.235.411 1.578.264.335.626.499 1.103.499.469 0 .83-.164 1.094-.49.272-.344.412-.876.412-1.579 0-.727-.14-1.259-.412-1.602zM170.794 1.85c-.395 0-.781.082-1.152.245a4.572 4.572 0 00-.65.352v-.425h-1.522V8.57h1.522V3.927c.23-.172.477-.311.733-.425.543-.238 1.06-.213 1.34-.099a.648.648 0 01.289.246c.066.106.115.27.148.474.033.229.05.482.05.752v3.696h1.521V4.393c0-.802-.197-1.431-.576-1.864-.403-.45-.97-.679-1.703-.679zM178.55 4.06h-3.9v1.472h3.9zM183.351 4.714a59.484 59.484 0 00-.6-.122 8.27 8.27 0 01-.626-.131c-.378-.09-.56-.188-.642-.262-.098-.082-.14-.204-.14-.376 0-.196.083-.327.264-.425.436-.245 1.152-.245 1.851 0 .346.123.65.278.897.45l.123.049h.33v-1.48l-.132-.066a4.188 4.188 0 00-.988-.343c-.814-.188-1.637-.188-2.295.025a2.533 2.533 0 00-.864.45 1.904 1.904 0 00-.716 1.487c0 .45.132.842.395 1.161.263.32.675.548 1.267.703.197.05.42.099.658.148.23.04.42.081.56.114.46.106.625.204.683.262.082.073.123.196.123.36 0 .22-.082.367-.255.474-.395.229-1.185.278-1.991-.017a3.911 3.911 0 01-1.02-.54l-.124-.048h-.329v1.545l.14.065c.263.131.592.254.995.368.395.115.84.172 1.309.172.847 0 1.538-.196 2.04-.58.519-.401.79-.924.79-1.554 0-.507-.156-.916-.46-1.235-.305-.327-.716-.531-1.243-.654zM187.843.28h-1.522v1.741h-.691v1.35h.691v2.976c0 .793.19 1.39.56 1.774.37.384.905.572 1.596.572.19 0 .395-.016.642-.049a4.68 4.68 0 00.658-.13l.181-.05V7.36l-.058-.245h-.246l-.091.016c-.074.033-.197.066-.362.115-.156.04-.313.065-.46.065-.313 0-.462-.04-.536-.073a.503.503 0 01-.222-.213 1.137 1.137 0 01-.123-.4 8.188 8.188 0 01-.025-.728V3.37h2.123V2.021h-2.123V.28zM195.85 2.79c.544.613.824 1.456.824 2.502 0 1.047-.272 1.889-.823 2.502-.552.621-1.309.94-2.23.94-.93 0-1.687-.319-2.238-.94-.543-.613-.823-1.455-.823-2.502 0-1.038.28-1.88.823-2.502.551-.621 1.308-.94 2.238-.94.93 0 1.678.319 2.23.94zm-1.135.908c-.263-.327-.617-.483-1.094-.483-.477 0-.84.156-1.103.483-.271.335-.411.866-.411 1.594 0 .703.14 1.235.411 1.578.264.335.626.499 1.103.499s.83-.164 1.094-.49c.272-.336.412-.876.412-1.579 0-.727-.132-1.259-.412-1.602zM203.908 5.22c0 .515-.082.998-.23 1.431-.148.442-.37.818-.65 1.12a2.926 2.926 0 01-.93.679c-.65.294-1.448.294-2.057.13a4.021 4.021 0 01-.469-.163v2.396h-1.522v-8.79h1.522v.401c.181-.114.37-.22.568-.31a2.81 2.81 0 011.193-.254c.815 0 1.456.31 1.917.924.444.589.667 1.414.658 2.436zm-1.884-1.463c-.206-.303-.518-.442-.954-.442-.255 0-.519.058-.79.172a4.1 4.1 0 00-.708.4v3.14c.214.09.395.147.56.188.189.041.411.066.658.066.502 0 .88-.156 1.152-.483.28-.335.42-.858.42-1.545 0-.679-.116-1.177-.338-1.496z"/><g><path fill="#fff" d="M133.918 40.501c-4.583-.065-8.475-1.586-11.223-5.396-4.394-6.107-1.95-15.003 4.936-18.15 5.612-2.56 12.474-1.382 16.44 2.82 5.85 6.206 3.431 16.638-4.55 19.688a15.611 15.611 0 01-5.603 1.038zm.016-18.322c-3.587-.016-6.212 2.453-6.228 5.846-.017 3.376 2.616 5.911 6.162 5.927 3.555.017 6.204-2.477 6.23-5.862.015-3.401-2.576-5.895-6.164-5.911z"/></g><g><path fill="#fff" d="M163.844 40.493c-5.011-.139-9.183-1.88-11.8-6.369-3.546-6.083-1.028-14.013 5.382-17.112 5.274-2.551 12.144-1.537 16.217 2.363 5.538 5.298 5.028 16.319-4.105 20.055-1.819.744-3.72 1.063-5.694 1.063zm-.017-18.322c-3.579.008-6.17 2.494-6.154 5.911.016 3.385 2.674 5.887 6.22 5.862 3.53-.033 6.22-2.6 6.188-5.927-.025-3.369-2.683-5.854-6.254-5.846z"/></g><g><path fill="#fff" d="M187.94 15.914c-.016-.016 2.625-.04 3.942.074 3.958.343 7.405 1.717 9.8 5.069 5.134 7.195.946 17.455-7.751 19.066-1.555.286-3.11.36-4.674.376 0-.016-8.047-.057-8.047-.057V15.914zm5.785 7.67c-1.16-.647-2.197-.957-3.76-.966h-1.44v11.095h.962c1.095-.024 2.181-.057 3.226-.441 2.008-.744 3.3-2.102 3.538-4.276.247-2.29-.403-4.227-2.526-5.413z"/></g><g><path fill="#fff" d="M22.461 15.77H19.96v24.691h2.501zM85.585 36.483h-14.07l-1.868 3.99H66.94L78.55 15.52l11.602 24.953h-2.707zm-1.16-2.494L78.55 21.423l-5.875 12.566zM64.974 15.77H47.44v2.485h13.173C59.083 20.847 47.432 40.47 47.44 40.47h.485l-.016.032h17.073v-2.485H51.875zM44.344 15.77H26.81v2.485h13.173C38.453 20.847 26.802 40.47 26.81 40.47h.485l-.016.032h17.073v-2.485H31.245zM16.596 23.517c0 3.868-3.06 7.105-7.183 7.53a19.35 19.35 0 01-1.637.09v.008H4.879c-.164.009-.32 0-.493.009a9.577 9.577 0 01-.815.008v-.008h-1.07v9.32H0V15.783h5.538c1.234-.008 3.143-.008 4.443.123 3.554.351 6.615 3.27 6.615 7.611zm-4.418-3.875c-1.333-.981-2.65-1.333-4.007-1.357-1.045-.017-5.67-.017-5.67-.017v10.4s4.937.017 5.67-.008a7.737 7.737 0 002.772-.597c3.563-1.512 4.328-6.164 1.235-8.421z"/></g><g><path fill="#fff" d="M113.017 15.8l-5.751 12.59-4.378-9-4.385 9L92.75 15.8h-7.47l11.462 24.7h2.262l3.884-8.242 3.884 8.242h2.263l11.461-24.7z"/></g><g><path fill="#fff" d="M5.904 51.766c.337.393.51.9.51 1.488 0 .417-.082.793-.247 1.12a2.366 2.366 0 01-.658.81 2.875 2.875 0 01-1.045.531c-.37.106-.84.155-1.399.155H.07v-8.2h2.55c.585 0 1.013.025 1.309.065.304.05.6.14.88.287.33.171.576.392.724.67.149.27.223.589.223.957a1.826 1.826 0 01-.74 1.504c.353.139.65.343.888.613zm-4.312 2.747h1.12c.435 0 .79-.024 1.069-.065.247-.041.452-.115.609-.22.156-.115.271-.238.345-.377.074-.139.107-.327.107-.556 0-.27-.04-.482-.115-.63-.066-.13-.206-.253-.403-.36a1.636 1.636 0 00-.518-.138 7.858 7.858 0 00-.84-.041H1.592zm2.592-4.734a.82.82 0 00-.066-.368.493.493 0 00-.205-.204 1.21 1.21 0 00-.494-.139 8.235 8.235 0 00-.84-.033h-.987v1.742h1.086c.313 0 .56-.016.733-.05a1.23 1.23 0 00.444-.17.609.609 0 00.255-.287c.05-.13.082-.294.074-.49zM11.474 52.355c.173-.188.338-.45.486-.801.107-.245.222-.417.345-.507.107-.082.28-.122.494-.122h.675V49.6h-.692c-.56 0-.995.114-1.308.335-.304.221-.56.548-.757.973l-.14.31c-.04.099-.09.197-.131.279a1.223 1.223 0 01-.412.466.975.975 0 01-.411.122V49.6H8.15v6.27h1.473v-2.648h.18l2.42 2.649h1.942l-2.97-3.262c.09-.074.189-.156.28-.254zM17.685 53.5l-1.629-3.9H14.46l2.42 5.748-1.194 2.657h1.588l3.612-8.405h-1.563zM26.128 49.607a3.868 3.868 0 00-1.061-.147c-.963 0-1.728.303-2.288.908-.56.596-.839 1.39-.839 2.37 0 .532.074 1.006.222 1.415.156.409.37.76.65 1.03s.617.483 1.004.613c.379.131.798.197 1.25.197.305 0 .61-.041.914-.115a6.255 6.255 0 001.078-.4l.14-.066v-1.226l-.058-.246h-.329l-.066.058c-.05.04-.14.106-.271.188-.132.09-.264.163-.387.22-.148.074-.32.14-.502.18a2.13 2.13 0 01-.551.074c-.51 0-.889-.155-1.16-.482-.28-.336-.42-.818-.42-1.448s.14-1.12.42-1.455c.271-.327.65-.49 1.16-.49.263 0 .543.057.83.163.289.106.593.278.898.507l.123.049h.33v-1.472l-.132-.065a6.964 6.964 0 00-.955-.36zM32.75 51.946h-2.427V49.6H28.85v6.27h1.473v-2.599h2.427v2.6h1.465V49.6H32.75zM41.251 50.653c.132.286.198.63.198 1.038v4.17h-1.465v-.393a2.718 2.718 0 01-.436.254 3.24 3.24 0 01-.6.213 3.37 3.37 0 01-.807.09 2.128 2.128 0 01-1.506-.581c-.42-.392-.625-.891-.625-1.496 0-.483.115-.891.33-1.202a2.18 2.18 0 01.912-.72 4.717 4.717 0 011.35-.335c.428-.049.897-.09 1.382-.114a.74.74 0 00-.082-.352.531.531 0 00-.239-.245 1.106 1.106 0 00-.411-.13 3.861 3.861 0 00-1.382.056 6.518 6.518 0 00-.947.286l-.09.017h-.247l-.05-.245v-1.178l.182-.049a8.52 8.52 0 01.855-.18c.815-.139 1.646-.122 2.238.008.338.074.634.205.88.385.256.188.445.425.56.703zm-1.25 2.2c-.239.016-.502.04-.79.065a5.719 5.719 0 00-.914.139 1.295 1.295 0 00-.576.31c-.131.123-.189.286-.189.515 0 .262.066.442.214.565.156.13.412.196.765.196.305 0 .593-.066.84-.18a4.24 4.24 0 00.65-.384zM46.145 49.6h2.485v6.27h-1.473v-2.296h-.79l-1.801 2.297H42.78l2.065-2.51c-.378-.147-.674-.343-.88-.597-.272-.327-.403-.76-.403-1.275 0-.36.082-.663.247-.916.156-.245.362-.442.6-.597.23-.147.502-.253.807-.302.28-.05.592-.074.93-.074zm-1.102 1.913c0 .164.016.295.05.384a.51.51 0 00.172.221.815.815 0 00.362.156c.164.032.362.049.568.049h.962v-1.464h-.987c-.255 0-.444.008-.543.025a.946.946 0 00-.305.114.473.473 0 00-.197.204c-.05.099-.066.205-.082.311zM55.42 55.87h1.465v-4.946h2.427v4.947h1.473V49.6H55.42zM64.486 53.353V49.6H63.03v6.27h1.259l2.674-3.809v3.81h1.465V49.6h-1.292zM75.975 49.6h-1.472v4.946h-2.378V49.6H70.66v6.27h4.616v1.39h1.399v-2.714h-.7zM83.664 49.6H82.19v4.946h-2.378V49.6H78.34v6.27h4.624v1.39h1.399v-2.714h-.7zM90.821 50.653c.132.286.198.63.198 1.038v4.17h-1.465v-.393a2.718 2.718 0 01-.436.254 3.24 3.24 0 01-.6.213 3.37 3.37 0 01-.807.09 2.128 2.128 0 01-1.506-.581c-.42-.392-.625-.891-.625-1.496 0-.483.115-.891.33-1.202a2.18 2.18 0 01.912-.72 4.717 4.717 0 011.35-.335c.428-.049.897-.09 1.382-.114a.74.74 0 00-.082-.352.531.531 0 00-.239-.245 1.106 1.106 0 00-.411-.13 3.861 3.861 0 00-1.382.056 6.518 6.518 0 00-.947.286l-.09.017h-.247l-.05-.245v-1.178l.182-.049a8.52 8.52 0 01.855-.18c.815-.139 1.646-.122 2.238.008.338.074.634.205.88.385.256.188.453.425.56.703zm-1.25 2.2c-.23.016-.494.04-.79.065a5.719 5.719 0 00-.914.139 1.295 1.295 0 00-.576.31c-.131.123-.189.286-.189.515 0 .262.066.442.214.565.156.13.412.196.765.196.305 0 .593-.066.84-.18a4.24 4.24 0 00.65-.384zM96.814 51.54H93.07v1.423h3.744zM98.89 55.87h1.473v-4.946h2.419v4.947h1.473V49.6H98.89zM111.458 50.323c.42.564.634 1.357.634 2.338 0 .49-.074.949-.214 1.366a3.074 3.074 0 01-.626 1.07 2.691 2.691 0 01-.888.655c-.626.278-1.39.278-1.975.122a3.42 3.42 0 01-.436-.155V58h-1.473v-8.405h1.473v.368a4.21 4.21 0 01.535-.286c.353-.155.74-.237 1.143-.237.782 0 1.4.294 1.827.883zm-1.168.932c-.198-.278-.494-.409-.905-.409-.247 0-.502.057-.757.164a3.38 3.38 0 00-.667.376v2.992c.206.082.379.14.527.172.18.04.386.065.625.065.469 0 .823-.147 1.086-.458.272-.318.403-.817.403-1.471 0-.638-.107-1.12-.312-1.431zM118.75 50.653c.123.286.189.63.189 1.038v4.17h-1.465v-.393a2.719 2.719 0 01-.436.254 3.419 3.419 0 01-.6.213 3.37 3.37 0 01-.807.09 2.128 2.128 0 01-1.506-.581c-.411-.392-.625-.891-.625-1.496 0-.483.115-.891.33-1.202.213-.303.517-.548.912-.72a4.717 4.717 0 011.35-.335c.428-.049.897-.09 1.382-.114a.74.74 0 00-.082-.352.531.531 0 00-.239-.245 1.106 1.106 0 00-.411-.13 3.861 3.861 0 00-1.382.056 6.518 6.518 0 00-.947.286l-.09.017h-.247l-.05-.245v-1.178l.182-.049a8.52 8.52 0 01.855-.18c.815-.139 1.646-.122 2.238.008.338.074.634.205.88.385.256.188.453.425.569.703zm-1.26 2.2c-.23.016-.493.04-.79.065a5.719 5.719 0 00-.913.139 1.295 1.295 0 00-.576.31c-.131.123-.189.286-.189.515 0 .262.066.442.214.565.156.13.412.196.765.196.305 0 .593-.066.84-.18a4.24 4.24 0 00.65-.384zM126.066 52.752c.271.286.403.654.403 1.104 0 .319-.066.605-.198.858a1.75 1.75 0 01-.543.63c-.246.18-.518.31-.806.392-.288.074-.65.115-1.103.115h-2.649V49.58h2.493c.436 0 .782.016 1.012.05.247.032.486.105.7.22.263.139.46.327.584.548.115.22.18.482.18.768 0 .344-.098.646-.295.9a2.357 2.357 0 01-.321.318c.197.098.378.23.543.368zm-1.185.777c-.017-.04-.082-.123-.296-.22a.894.894 0 00-.338-.09 11.095 11.095 0 00-.617-.017h-1.012v1.406h.683c.379 0 .667-.016.872-.04.173-.025.33-.066.453-.14a.638.638 0 00.255-.229.61.61 0 00.074-.318.7.7 0 00-.074-.352zm-.239-2.2a.484.484 0 00-.05-.22.31.31 0 00-.139-.13 1.003 1.003 0 00-.395-.099c-.18-.016-.403-.016-.666-.016h-.774v1.095h.98c.246 0 .427-.008.534-.024a.7.7 0 00.28-.107.486.486 0 00.18-.188.849.849 0 00.05-.31zM129.765 53.353V49.6H128.3v6.27h1.259l2.682-3.809v3.81h1.457V49.6h-1.292zM136.591 50.943c-.016.384-.025.72-.041 1.005-.033.76-.107 1.341-.206 1.734-.099.368-.214.621-.37.768a.204.204 0 01-.115.066.914.914 0 01-.313.024c-.058 0-.107-.008-.19-.008h-.246v1.333h.247c.033 0 .107 0 .214.008.115 0 .205.008.263.008.198 0 .387-.033.551-.09.173-.065.33-.155.478-.278a3.37 3.37 0 00.362-.392c.115-.156.222-.344.312-.58a4.28 4.28 0 00.23-.908c.058-.352.1-.818.124-1.407.008-.212.025-.458.033-.72l.025-.596h1.695v4.97h1.473v-6.27h-4.493zM148.34 52.958c.115.262.173.548.173.867 0 .31-.066.605-.198.867a1.73 1.73 0 01-.535.646 2.462 2.462 0 01-.814.408 4.25 4.25 0 01-1.07.115h-2.526V49.59h1.473v2.257h1.078c.452 0 .806.024 1.061.073.28.05.551.18.823.376.239.18.411.4.535.662zm-1.39.532a.508.508 0 00-.206-.213 1.017 1.017 0 00-.395-.122 9.03 9.03 0 00-.774-.025h-.724v1.48h.7c.337 0 .592-.016.773-.04.156-.025.296-.074.403-.14a.604.604 0 00.214-.22.88.88 0 00.066-.36c0-.14-.025-.262-.058-.36zM154.152 51.946h-2.427V49.6h-1.465v6.27h1.465v-2.599h2.427v2.6h1.473V49.6h-1.473zM162.67 50.653c.123.286.189.63.189 1.038v4.17h-1.465v-.393a2.72 2.72 0 01-.436.254 3.418 3.418 0 01-.6.213 3.37 3.37 0 01-.807.09 2.128 2.128 0 01-1.506-.581c-.411-.392-.625-.891-.625-1.496 0-.483.115-.891.33-1.202.213-.303.517-.548.912-.72a4.717 4.717 0 011.35-.335c.428-.049.897-.09 1.382-.114a.74.74 0 00-.082-.352.531.531 0 00-.239-.245 1.106 1.106 0 00-.411-.13 3.861 3.861 0 00-1.382.056 6.519 6.519 0 00-.947.286l-.09.017h-.247l-.05-.245v-1.178l.182-.049a8.52 8.52 0 01.855-.18c.815-.139 1.646-.122 2.238.008.338.074.634.205.88.385.256.188.453.425.569.703zm-1.26 2.2c-.23.016-.493.04-.79.065a5.719 5.719 0 00-.913.139 1.295 1.295 0 00-.576.31c-.131.123-.189.286-.189.515 0 .262.066.442.214.565.156.13.412.196.765.196.305 0 .593-.066.84-.18a4.24 4.24 0 00.65-.384zM167.545 49.6h2.485v6.27h-1.473v-2.296h-.79l-1.801 2.297h-1.786l2.065-2.51c-.378-.147-.674-.343-.88-.597-.272-.327-.403-.76-.403-1.275 0-.36.082-.663.247-.916.156-.245.362-.442.6-.597.23-.147.502-.253.807-.302.288-.05.6-.074.93-.074zm1.02 1.267h-.995c-.255 0-.444.008-.543.025a.946.946 0 00-.304.114.433.433 0 00-.198.205.643.643 0 00-.074.31c0 .164.016.295.05.385a.51.51 0 00.172.22.815.815 0 00.362.156c.165.032.362.049.568.049h.963zM176.83 55.87h1.473v-4.946h2.419v4.947h1.473V49.6h-5.365zM189.097 50.2c.469.5.707 1.21.707 2.11v.768h-4.278c.016.221.057.425.131.597.09.22.223.417.379.556.156.14.345.245.56.319.518.172 1.2.147 1.85-.106.371-.148.634-.286.782-.417l.074-.066h.338l.05.246v1.226l-.149.065a7.879 7.879 0 01-1.045.36c-.37.098-.757.147-1.152.147-1.028 0-1.851-.286-2.435-.85-.593-.564-.889-1.365-.889-2.387 0-1.006.288-1.824.847-2.42.568-.605 1.317-.908 2.23-.908.856 0 1.523.253 2 .76zm-.757 1.644c-.033-.327-.14-.589-.313-.777-.214-.229-.535-.343-.987-.343-.461 0-.815.13-1.078.392a1.468 1.468 0 00-.412.728zM195.147 52.462a6.61 6.61 0 01-.527.106c-.271.04-.518.065-.74.065-.321 0-.502-.04-.593-.081a.584.584 0 01-.271-.197.785.785 0 01-.132-.351 3.577 3.577 0 01-.041-.556V49.6h-1.473v2.346c0 .646.19 1.153.576 1.505.378.343.913.523 1.596.523.354 0 .691-.033.996-.09.197-.04.403-.09.617-.147v2.142h1.473v-6.27h-1.473v2.853zM204.003 53.825c0 .31-.066.605-.198.867a1.73 1.73 0 01-.535.646 2.462 2.462 0 01-.814.408 4.25 4.25 0 01-1.07.115h-2.526V49.59h1.473v2.257h1.078c.452 0 .806.024 1.061.073.28.05.551.18.823.376.239.18.42.4.535.67.115.262.173.557.173.86zm-1.564-.335a.508.508 0 00-.205-.213 1.017 1.017 0 00-.395-.122 9.03 9.03 0 00-.774-.025h-.724v1.48h.7c.337 0 .592-.016.773-.04.156-.025.296-.074.403-.14a.604.604 0 00.214-.22.88.88 0 00.066-.36.944.944 0 00-.058-.36z"/></g></svg>